<svg aria-hidden="true" style="position: absolute; width: 0; height: 0; overflow: hidden;" version="1.1" xmlns="http://www.w3.org/2000/svg" xmlns:xlink="http://www.w3.org/1999/xlink">
<defs>
<symbol id="icon-google" viewBox="0 0 32 32">
<title>google</title>
<path fill="#4285f4" style="fill: var(--color1, #4285f4)" d="M16.32 13.713v5.487h9.075c-0.367 2.353-2.741 6.899-9.075 6.899-5.46 0-9.919-4.519-9.919-10.099s4.46-10.099 9.919-10.099c3.107 0 5.188 1.319 6.38 2.465l4.339-4.184c-2.787-2.601-6.4-4.183-10.719-4.183-8.847 0-16 7.153-16 16s7.153 16 16 16c9.235 0 15.36-6.492 15.36-15.635 0-1.051-0.113-1.853-0.252-2.652h-15.108z"></path>
</symbol>
<symbol id="icon-chevron-down" viewBox="0 0 32 32">
<title>chevron-down</title>
<path d="M30.054 14.429l-13.25 13.232c-0.446 0.446-1.161 0.446-1.607 0l-13.25-13.232c-0.446-0.446-0.446-1.179 0-1.625l2.964-2.946c0.446-0.446 1.161-0.446 1.607 0l9.482 9.482 9.482-9.482c0.446-0.446 1.161-0.446 1.607 0l2.964 2.946c0.446 0.446 0.446 1.179 0 1.625z"></path>
</symbol>
<symbol id="icon-bar-chart" viewBox="0 0 37 32">
<title>bar-chart</title>
<path d="M11.429 16v9.143h-4.571v-9.143h4.571zM18.286 6.857v18.286h-4.571v-18.286h4.571zM36.571 27.429v2.286h-36.571v-27.429h2.286v25.143h34.286zM25.143 11.429v13.714h-4.571v-13.714h4.571zM32 4.571v20.571h-4.571v-20.571h4.571z"></path>
</symbol>
<symbol id="icon-briefcase" viewBox="0 0 32 32">
<title>briefcase</title>
<path d="M11.429 4.571h9.143v-2.286h-9.143v2.286zM32 16v8.571c0 1.571-1.286 2.857-2.857 2.857h-26.286c-1.571 0-2.857-1.286-2.857-2.857v-8.571h12v2.857c0 0.625 0.518 1.143 1.143 1.143h5.714c0.625 0 1.143-0.518 1.143-1.143v-2.857h12zM18.286 16v2.286h-4.571v-2.286h4.571zM32 7.429v6.857h-32v-6.857c0-1.571 1.286-2.857 2.857-2.857h6.286v-2.857c0-0.946 0.768-1.714 1.714-1.714h10.286c0.946 0 1.714 0.768 1.714 1.714v2.857h6.286c1.571 0 2.857 1.286 2.857 2.857z"></path>
</symbol>
<symbol id="icon-bullseye" viewBox="0 0 27 32">
<title>bullseye</title>
<path d="M18.286 16c0 2.518-2.054 4.571-4.571 4.571s-4.571-2.054-4.571-4.571 2.054-4.571 4.571-4.571 4.571 2.054 4.571 4.571zM20.571 16c0-3.786-3.071-6.857-6.857-6.857s-6.857 3.071-6.857 6.857 3.071 6.857 6.857 6.857 6.857-3.071 6.857-6.857zM22.857 16c0 5.054-4.089 9.143-9.143 9.143s-9.143-4.089-9.143-9.143 4.089-9.143 9.143-9.143 9.143 4.089 9.143 9.143zM25.143 16c0-6.304-5.125-11.429-11.429-11.429s-11.429 5.125-11.429 11.429 5.125 11.429 11.429 11.429 11.429-5.125 11.429-11.429zM27.429 16c0 7.571-6.143 13.714-13.714 13.714s-13.714-6.143-13.714-13.714 6.143-13.714 13.714-13.714 13.714 6.143 13.714 13.714z"></path>
</symbol>
<symbol id="icon-line-chart" viewBox="0 0 37 32">
<title>line-chart</title>
<path d="M36.571 27.429v2.286h-36.571v-27.429h2.286v25.143h34.286zM34.286 5.143v7.768c0 0.5-0.607 0.768-0.982 0.393l-2.161-2.161-11.304 11.304c-0.232 0.232-0.589 0.232-0.821 0l-4.161-4.161-7.429 7.429-3.429-3.429 10.446-10.446c0.232-0.232 0.589-0.232 0.821 0l4.161 4.161 8.286-8.286-2.161-2.161c-0.375-0.375-0.107-0.982 0.393-0.982h7.768c0.321 0 0.571 0.25 0.571 0.571z"></path>
</symbol>
<symbol id="icon-podcast" viewBox="0 0 27 32">
<title>podcast</title>
<path d="M17.75 21.286c0 1.179-0.125 2.357-0.304 3.518-0.268 1.857-0.536 3.768-0.982 5.589-0.321 1.304-1.536 1.607-2.714 1.607s-2.393-0.304-2.714-1.607c-0.446-1.821-0.714-3.732-0.982-5.589-0.179-1.161-0.304-2.339-0.304-3.518 0-2.411 1.946-3 4-3s4 0.589 4 3zM27.429 13.714c0 5.786-3.571 10.732-8.643 12.75-0.196 0.071-0.411-0.107-0.375-0.321 0.054-0.375 0.107-0.768 0.179-1.179 0.036-0.286 0.071-0.571 0.107-0.839 0.018-0.107 0.071-0.179 0.161-0.214 3.714-1.893 6.286-5.75 6.286-10.196 0-6.518-5.464-11.768-12.054-11.411-6.036 0.321-10.839 5.464-10.804 11.5 0.036 4.446 2.625 8.286 6.357 10.143 0.089 0.036 0.143 0.125 0.161 0.214 0.036 0.25 0.071 0.518 0.107 0.804 0.071 0.429 0.125 0.821 0.196 1.214 0.036 0.214-0.196 0.393-0.393 0.304-5.304-2.071-9-7.357-8.696-13.446 0.339-6.911 5.911-12.571 12.821-13 7.964-0.5 14.589 5.821 14.589 13.679zM17.75 13.143c0 2.214-1.786 4-4 4s-4-1.786-4-4 1.786-4 4-4 4 1.786 4 4zM22.893 13.714c0 2.946-1.411 5.589-3.571 7.25-0.179 0.143-0.429 0.018-0.464-0.214-0.054-0.5-0.196-1.089-0.518-1.643-0.071-0.107-0.054-0.25 0.054-0.357 1.357-1.25 2.214-3.036 2.214-5.036 0-4.036-3.518-7.268-7.643-6.821-3.161 0.357-5.732 2.964-6.036 6.143-0.232 2.25 0.661 4.321 2.179 5.714 0.107 0.107 0.125 0.25 0.054 0.357-0.321 0.554-0.464 1.143-0.518 1.661-0.036 0.214-0.286 0.339-0.464 0.196-2.214-1.714-3.625-4.411-3.571-7.446 0.107-4.75 3.964-8.714 8.696-8.929 5.25-0.25 9.589 3.929 9.589 9.125z"></path>
</symbol>
<symbol id="icon-briefcase1" viewBox="0 0 32 32">
<title>briefcase1</title>
<path d="M30 8h-8v-2c0-1.1-0.9-2-2-2h-8c-1.1 0-2 0.9-2 2v2h-8c-1.1 0-2 0.9-2 2v18c0 1.1 0.9 2 2 2h28c1.1 0 2-0.9 2-2v-18c0-1.1-0.9-2-2-2zM12 6.004c0.001-0.001 0.002-0.003 0.004-0.004h7.993c0.001 0.001 0.003 0.002 0.004 0.004v1.996h-8v-1.996zM30 16h-4v3c0 0.55-0.45 1-1 1h-2c-0.55 0-1-0.45-1-1v-3h-12v3c0 0.55-0.45 1-1 1h-2c-0.55 0-1-0.45-1-1v-3h-4v-2h28v2z"></path>
</symbol>
</defs>
</svg>
